HIERARCHY
ROOT Bip001_Pelvis
{
  OFFSET 32.8599 95.8771 -27.9544
  CHANNELS 6 Xposition Yposition Zposition Zrotation Xrotation Yrotation
  JOINT Bip001_Spine
  {
    OFFSET 1.4188e-005 10.2191 -0.0116013
    CHANNELS 3 Zrotation Xrotation Yrotation
    JOINT Bip001_L_Thigh
    {
      OFFSET 11.0458 -10.2191 0.0116197
      CHANNELS 3 Zrotation Xrotation Yrotation
      JOINT Bip001_L_Calf
      {
        OFFSET -0.707118 -44.0221 0.360014
        CHANNELS 3 Zrotation Xrotation Yrotation
        JOINT Bip001_L_Foot
        {
          OFFSET -0.651902 -40.5938 -3.56146
          CHANNELS 3 Zrotation Xrotation Yrotation
          JOINT Bip001_L_Toe0
          {
            OFFSET 0.0530839 -10.2181 13.1504
            CHANNELS 3 Zrotation Xrotation Yrotation
            End Site
            {
              OFFSET -1.02532e-005 0 7.55606
            }
          }
        }
      }
    }
    JOINT Bip001_R_Thigh
    {
      OFFSET -11.0458 -10.2191 0.0115893
      CHANNELS 3 Zrotation Xrotation Yrotation
      JOINT Bip001_R_Calf
      {
        OFFSET 0.706994 -44.0221 0.35984
        CHANNELS 3 Zrotation Xrotation Yrotation
        JOINT Bip001_R_Foot
        {
          OFFSET 0.651787 -40.5938 -3.5613
          CHANNELS 3 Zrotation Xrotation Yrotation
          JOINT Bip001_R_Toe0
          {
            OFFSET -0.0531479 -10.2181 13.1504
            CHANNELS 3 Zrotation Xrotation Yrotation
            End Site
            {
              OFFSET -1.02894e-005 0 7.55606
            }
          }
        }
      }
    }
    JOINT Bip001_Spine1
    {
      OFFSET 1.87041e-005 14.5736 1.08638
      CHANNELS 3 Zrotation Xrotation Yrotation
      JOINT Bip001_Spine2
      {
        OFFSET 2.24614e-005 14.5058 -1.69078
        CHANNELS 3 Zrotation Xrotation Yrotation
        JOINT Bip001_Neck
        {
          OFFSET 2.20278e-005 15.3945 -0.489414
          CHANNELS 3 Zrotation Xrotation Yrotation
          JOINT Bip001_L_Clavicle
          {
            OFFSET 6.06036 -0.000579998 0.00836775
            CHANNELS 3 Zrotation Xrotation Yrotation
            JOINT Bip001_L_UpperArm
            {
              OFFSET 11.5509 -0.0600302 0.00193952
              CHANNELS 3 Zrotation Xrotation Yrotation
              JOINT Bip001_L_Forearm
              {
                OFFSET 25.9523 0.0806089 -2.15551
                CHANNELS 3 Zrotation Xrotation Yrotation
                JOINT Bip001_L_Hand
                {
                  OFFSET 32.2475 0.153767 1.63968
                  CHANNELS 3 Zrotation Xrotation Yrotation
                  JOINT Bip001_L_Finger0
                  {
                    OFFSET 6.04639 -2.20976 5.90322
                    CHANNELS 3 Zrotation Xrotation Yrotation
                    End Site
                    {
                      OFFSET 4.22375 -1.43895 0.606486
                    }
                  }
                  JOINT Bip001_L_Finger1
                  {
                    OFFSET 11.0826 -0.704819 -0.198153
                    CHANNELS 3 Zrotation Xrotation Yrotation
                    End Site
                    {
                      OFFSET 6.20027 -0.397518 -0.0787166
                    }
                  }
                }
              }
            }
          }
          JOINT Bip001_R_Clavicle
          {
            OFFSET -6.06036 -0.000563197 0.00835105
            CHANNELS 3 Zrotation Xrotation Yrotation
            JOINT Bip001_R_UpperArm
            {
              OFFSET -11.5509 -0.0599978 0.00190698
              CHANNELS 3 Zrotation Xrotation Yrotation
              JOINT Bip001_R_Forearm
              {
                OFFSET -25.9523 0.0806819 -2.1559
                CHANNELS 3 Zrotation Xrotation Yrotation
                JOINT Bip001_R_Hand
                {
                  OFFSET -32.2476 0.153857 1.63991
                  CHANNELS 3 Zrotation Xrotation Yrotation
                  JOINT Bip001_R_Finger0
                  {
                    OFFSET -6.04642 -2.20975 5.9032
                    CHANNELS 3 Zrotation Xrotation Yrotation
                    End Site
                    {
                      OFFSET -4.22376 -1.43894 0.606473
                    }
                  }
                  JOINT Bip001_R_Finger1
                  {
                    OFFSET -11.0826 -0.70479 -0.198183
                    CHANNELS 3 Zrotation Xrotation Yrotation
                    End Site
                    {
                      OFFSET -6.20028 -0.397501 -0.0787337
                    }
                  }
                }
              }
            }
          }
          JOINT Bip001_Head
          {
            OFFSET 1.09673e-005 11.2744 2.05948
            CHANNELS 3 Zrotation Xrotation Yrotation
            End Site
            {
              OFFSET 2.89576e-005 20.8808 -2.77728e-005
            }
          }
        }
      }
    }
  }
}
MOTION
Frames:	13
Frame Time:	0.04
33.2731 95.9481 -28.6176 0.587033 -0.337278 1.04394 -0.336056 2.23536 0.376111 4.64077 -2.55032 6.06905 -0.707012 6.00008 -9.59469 4.7019 -1.86779 -0.158517 -1.59413 -4.72229 2.83548 -3.53265 -3.35709 -2.27262 -0.0190397 10.4505 0.4337 -5.29345 -9.46831 2.63392 2.15341 -7.33972 2.22847 -0.697701 4.46587 0.771331 -0.697876 4.46588 0.77139 2.03012 -11.7434 -3.77996 -27.1349 12.0264 1.58036 -56.2331 45.7655 3.96058 17.4486 2.30743 -22.7014 9.2213 2.14095 -4.37533 9.54166e-015 0 1.59028e-015 6.36111e-015 0 -0 26.6109 17.6406 10.1993 50.5959 37.3443 5.43696 -8.85692 5.46551 5.98073 -4.07487 7.461 9.1375 1.59028e-015 -3.18055e-015 -0 -1.59028e-015 3.18056e-015 1.59028e-015 -1.29077 -1.5537 -2.94174 
33.2823 95.937 -28.6533 0.603226 -0.383669 0.923875 -0.335483 2.23536 0.361415 4.58119 -2.48802 6.33116 -0.675604 5.9607 -9.80749 5.04512 -1.65911 -0.180498 -1.50442 -4.93407 2.7932 -3.57613 -3.40636 -2.24632 -0.0218575 10.5682 0.48175 -5.28953 -9.54632 2.72477 2.14772 -7.28827 2.19932 -0.685959 4.46935 0.736751 -0.685935 4.46936 0.736753 2.12036 -11.674 -3.70564 -27.2169 11.9773 1.51962 -56.2386 45.9847 4.04853 17.4383 2.2081 -22.6143 9.06965 2.14125 -4.26805 -3.18055e-015 -9.54166e-015 1.59028e-015 2.64834e-031 -9.54167e-015 1.59028e-015 26.5874 17.2795 9.3886 50.452 36.9632 5.7148 -8.8871 5.19276 6.23456 -4.98238 7.46314 9.61411 8.82781e-032 3.18055e-015 -1.59028e-015 -1.59028e-015 0 -1.59028e-015 -1.4194 -1.58787 -2.8262 
33.2759 95.9355 -28.6756 0.576363 -0.445094 0.827894 -0.316649 2.23537 0.350941 4.60066 -2.44417 6.64862 -0.66386 6.01432 -10.0241 5.09687 -1.64462 -0.185745 -1.47087 -4.98565 2.74749 -3.58178 -3.36944 -2.26499 -0.0267505 10.5671 0.523195 -5.25558 -9.55011 2.83145 2.1392 -7.26262 2.19041 -0.648067 4.4789 0.714582 -0.647874 4.4789 0.714588 2.21376 -11.5944 -3.65421 -27.2252 11.9574 1.31353 -56.4728 46.3463 4.24373 17.4631 1.95929 -22.4369 8.98963 2.14425 -4.14704 6.36111e-015 0 1.59028e-015 6.36111e-015 -3.18056e-015 1.59028e-015 26.4549 16.8581 8.48448 49.9994 36.0803 6.42856 -8.82824 6.54797 6.37626 -5.05978 9.74895 10.3706 -8.82781e-032 -3.18055e-015 -1.59028e-015 -1.59028e-015 -6.36111e-015 -7.95139e-016 -1.58116 -1.56656 -2.72005 
33.2657 95.9422 -28.696 0.594107 -0.436969 0.807226 -0.311985 2.23538 0.314517 4.60508 -2.42601 6.8538 -0.625687 5.99914 -10.1278 4.23782 -2.05789 -0.13095 -1.70683 -4.61331 2.98753 -3.60852 -3.38443 -2.24647 -0.0246711 10.5451 0.513628 -5.22994 -9.55356 2.89338 2.1345 -7.24207 2.18868 -0.626 4.47103 0.64175 -0.626 4.47101 0.64175 2.18256 -11.4839 -3.55649 -27.112 11.9175 1.14051 -56.6619 46.6659 4.31991 17.4365 1.68634 -22.2938 8.92086 2.18068 -4.07783 3.18055e-015 0 -1.59028e-015 3.18055e-015 3.18056e-015 -3.18055e-015 26.6565 16.5371 7.8555 49.2162 35.646 7.05776 -8.57843 8.54657 6.33064 -5.40558 11.6172 11.3889 -1.59028e-015 3.18055e-015 -0 -3.18055e-015 0 -0 -1.56952 -1.75127 -2.64142 
33.2878 95.9356 -28.7562 0.672043 -0.306785 0.706512 -0.308213 2.21116 0.303176 4.43379 -2.49919 6.93258 -0.536775 5.86086 -10.149 4.65316 -1.74517 -0.158172 -1.57319 -4.86549 2.85232 -3.73315 -3.63078 -2.12196 0.0399045 10.729 0.504392 -5.2435 -9.61224 2.87839 2.13389 -7.24484 2.1901 -0.626051 4.42064 0.622182 -0.626052 4.42065 0.622183 2.15736 -11.536 -3.47933 -27.1622 11.9972 1.10657 -56.6391 46.8126 4.31721 17.4295 1.69271 -22.2826 8.89057 2.23756 -4.10409 8.82781e-032 3.18055e-015 -1.59028e-015 0 0 -1.59028e-015 26.7307 16.4779 7.54551 48.913 36.0725 7.00259 -8.28544 8.68428 6.55661 -5.9287 11.7641 12.1535 8.82781e-032 6.36111e-015 -7.95139e-016 -3.18055e-015 4.77083e-015 -7.95139e-016 -1.59224 -1.78233 -2.56861 
33.2777 95.9385 -28.752 0.692226 -0.310418 0.677056 -0.293803 2.22018 0.291332 4.3995 -2.43159 6.50419 -0.619327 5.69863 -9.70621 5.09206 -1.43377 -0.19706 -1.4575 -5.03649 2.73875 -3.76159 -3.67625 -2.10895 0.0383766 10.8024 0.503977 -5.23917 -9.64192 2.89843 2.13146 -7.22632 2.18251 -0.599585 4.43881 0.594735 -0.599585 4.43881 0.594735 2.15423 -11.7254 -3.45712 -27.1198 12.2293 0.988585 -56.8651 46.665 4.37253 17.5727 1.95935 -22.337 8.90782 2.15406 -4.21547 3.18055e-015 0 -0 9.54166e-015 -6.36111e-015 -1.59028e-015 26.6509 16.6375 7.48237 49.2344 36.8495 6.27452 -8.35047 7.91224 7.14558 -5.93173 11.3212 12.2154 4.77083e-015 9.54166e-015 -0 1.59028e-015 6.36111e-015 -0 -1.66375 -1.72755 -2.53339 
33.2391 95.9305 -28.681 0.628669 -0.471276 0.725196 -0.264672 2.24918 0.270283 4.46727 -2.33832 6.95519 -0.578507 5.85744 -10.2063 5.21016 -1.47112 -0.198188 -1.4182 -5.11846 2.72795 -3.66539 -3.46453 -2.19997 -0.0387411 10.7363 0.5306 -5.22859 -9.63827 2.94219 2.1323 -7.24017 2.19024 -0.539869 4.50164 0.547792 -0.540119 4.50164 0.547691 2.05565 -11.8265 -3.44763 -27.1789 12.3316 1.04401 -56.751 46.7895 4.33398 17.5909 1.94824 -22.3377 8.95401 2.08412 -4.29276 3.18055e-015 -6.36111e-015 -1.59028e-015 6.36111e-015 -6.36111e-015 -0 26.6301 16.7468 7.54448 49.8616 36.919 5.33185 -8.46203 7.6244 7.82159 -5.54114 10.9247 11.6521 -3.18055e-015 6.36111e-015 -1.59028e-015 -3.18055e-015 3.18056e-015 -7.95139e-016 -1.6178 -1.68341 -2.55506 
33.2311 95.9333 -28.6644 0.602748 -0.496222 0.706345 -0.26581 2.2488 0.279028 4.49863 -2.2676 6.12619 -0.672879 5.7728 -9.41922 5.27517 -1.3833 -0.200627 -1.4177 -5.15448 2.72796 -3.62831 -3.40011 -2.25299 -0.0583797 10.6738 0.545223 -5.22166 -9.62044 2.97993 2.13196 -7.24128 2.19161 -0.543809 4.49461 0.569592 -0.543491 4.49461 0.569408 2.17564 -11.82 -3.49385 -27.3179 12.2843 1.11009 -56.6631 46.9431 4.29269 17.588 1.89463 -22.289 8.96328 2.06147 -4.2873 6.36111e-015 -3.18055e-015 -1.59028e-015 6.36111e-015 -3.18056e-015 -3.18055e-015 26.5126 16.7381 7.52322 50.3516 36.5681 4.66696 -8.19509 7.48154 8.04825 -5.26292 10.5646 11.5604 -1.59028e-015 -6.36111e-015 -0 -8.82782e-032 -3.18056e-015 -1.59028e-015 -1.68726 -1.77226 -2.56322 
33.228 95.9262 -28.6479 0.60811 -0.508867 0.675326 -0.285562 2.24816 0.296981 4.51204 -2.25303 6.43528 -0.641287 5.83034 -9.71898 5.33425 -1.3935 -0.203897 -1.40107 -5.17332 2.70397 -3.61515 -3.39423 -2.27302 -0.0626989 10.7259 0.546463 -5.21314 -9.66396 3.01241 2.12893 -7.22374 2.17655 -0.58321 4.478 0.604009 -0.58321 4.47801 0.604009 2.27914 -11.7131 -3.50905 -27.4414 12.1455 1.16337 -56.4629 46.8231 4.2549 17.4878 1.82693 -22.3651 8.96194 2.18108 -4.21965 3.18055e-015 -3.18055e-015 -0 6.36111e-015 -6.36111e-015 -0 26.5289 16.6404 7.52145 50.7697 36.8155 3.63931 -8.0494 6.67289 8.8233 -4.96285 10.2842 11.3866 -1.59028e-015 -3.18055e-015 7.95139e-016 -3.18055e-015 0 1.59028e-015 -1.7111 -1.92027 -2.55053 
33.2132 95.9265 -28.6394 0.599731 -0.512011 0.66734 -0.293717 2.24756 0.308427 4.54837 -2.28135 6.58079 -0.603601 5.94015 -9.77726 5.10702 -1.62151 -0.184262 -1.42739 -5.02646 2.71838 -3.59227 -3.37163 -2.28219 -0.063214 10.6994 0.539327 -5.20714 -9.66203 3.04695 2.12787 -7.2256 2.17051 -0.600075 4.47364 0.629054 -0.600075 4.47364 0.629053 2.2737 -11.6065 -3.50504 -27.4074 12.0597 1.09148 -56.3959 46.511 4.22972 17.4309 1.86621 -22.4281 8.91018 2.23234 -4.16039 -3.18055e-015 6.36111e-015 -1.59028e-015 0 6.36111e-015 -0 26.6535 16.5827 7.61561 51.2259 36.8362 2.24449 -8.06778 6.19674 10.0132 -4.75329 10.4247 11.4858 3.18055e-015 3.18055e-015 -1.59028e-015 4.77083e-015 0 -2.38542e-015 -1.65203 -2.08149 -2.55712 
33.1998 95.9191 -28.6222 0.612339 -0.534014 0.667149 -0.298084 2.24729 0.327568 4.54717 -2.28093 6.73181 -0.590466 5.96988 -9.981 5.17323 -1.58534 -0.184017 -1.41166 -5.0875 2.70298 -3.59655 -3.35683 -2.35061 -0.0486443 10.7375 0.535779 -5.22598 -9.71498 3.03033 2.13017 -7.22884 2.19017 -0.611465 4.49276 0.678501 -0.611425 4.49278 0.678294 2.27171 -11.5017 -3.51269 -27.3585 11.9854 0.972112 -56.3628 46.5153 4.1463 17.3756 1.75963 -22.3498 8.86446 2.15101 -4.13363 8.82781e-032 3.18055e-015 -1.59028e-015 3.18055e-015 3.18056e-015 -3.18055e-015 26.5963 16.4911 7.68742 51.6584 36.5815 1.13393 -7.89869 6.31035 11.0365 -4.82076 10.4108 11.7408 6.36111e-015 -1.27222e-014 7.95139e-016 4.77083e-015 -9.54167e-015 1.59028e-015 -1.6576 -2.29809 -2.57321 
33.1429 95.9205 -28.5874 0.533787 -0.590607 0.808157 -0.288059 2.27067 0.327648 4.69745 -2.3329 6.71372 -0.63536 6.14759 -10.0709 5.08678 -1.7333 -0.178419 -1.44086 -5.00392 2.75999 -3.46079 -3.21983 -2.41869 -0.0910806 10.5964 0.540165 -5.23547 -9.65319 2.97828 2.13018 -7.23263 2.19087 -0.590458 4.5396 0.679244 -0.590451 4.5396 0.679034 2.24923 -11.4197 -3.52749 -27.2671 11.9405 0.837103 -56.334 46.468 4.05594 17.2981 1.538 -22.303 8.74768 2.12919 -4.07226 -3.18055e-015 -6.36111e-015 -3.18055e-015 -3.18055e-015 -3.18056e-015 -3.18055e-015 26.5722 16.4211 7.74417 52.048 36.4587 0.0457265 -7.73953 5.90651 12.0675 -4.99712 10.684 11.8297 0 0 -7.95139e-016 3.18055e-015 3.18056e-015 -1.59028e-015 -1.62241 -2.53934 -2.60543 
33.0174 95.923 -28.4878 0.227568 -0.936707 0.972266 -0.23467 2.34512 0.327671 5.16497 -2.22974 7.05723 -0.769151 6.59716 -10.5474 5.03075 -2.0557 -0.162676 -1.49988 -4.94743 2.7824 -3.0171 -2.60686 -2.73554 -0.313672 10.0578 0.613013 -5.17719 -9.46803 3.12883 2.12962 -7.22123 2.19108 -0.482781 4.68886 0.658184 -0.483045 4.68886 0.661294 2.21276 -11.3388 -3.51914 -27.1024 11.9005 0.708383 -56.4731 46.2407 4.00721 17.3334 1.54587 -22.2474 8.79717 2.17442 -4.10712 1.27222e-014 -3.18055e-015 -1.59028e-015 9.54166e-015 -3.18056e-015 -0 26.6485 16.383 7.86344 52.5605 36.5416 -1.45684 -7.81522 5.38485 13.6393 -5.31612 10.8188 11.5832 -1.59028e-015 3.18055e-015 -7.95139e-016 8.82782e-032 3.18056e-015 -1.59028e-015 -1.54181 -2.69275 -2.62043 
